<mxfile host="app.diagrams.net" modified="2023-09-12T07:32:58.486Z" agent="Mozilla/5.0 (Windows NT 10.0; Win64; x64) AppleWebKit/537.36 (KHTML, like Gecko) Chrome/116.0.0.0 Safari/537.36" etag="JtPpgAIlGEgeFShRfW4v" version="21.7.4" type="github">
  <diagram name="Page-1" id="c4acf3e9-155e-7222-9cf6-157b1a14988f">
    <mxGraphModel dx="1723" dy="794" grid="1" gridSize="10" guides="1" tooltips="1" connect="1" arrows="1" fold="1" page="1" pageScale="1" pageWidth="850" pageHeight="1100" background="none" math="0" shadow="0">
      <root>
        <mxCell id="0" />
        <mxCell id="1" parent="0" />
        <mxCell id="KOH9cIi894yx0-R4t6Mn-4" value="&lt;div style=&quot;box-sizing:border-box;width:100%;background:#e4e4e4;padding:2px;&quot;&gt;&lt;font style=&quot;font-size: 24px;&quot;&gt;Person&lt;/font&gt;&lt;/div&gt;&lt;table style=&quot;width: 100%;&quot; cellpadding=&quot;2&quot; cellspacing=&quot;0&quot;&gt;&lt;tbody&gt;&lt;tr&gt;&lt;td&gt;&lt;font style=&quot;font-size: 18px;&quot;&gt;PK&lt;/font&gt;&lt;/td&gt;&lt;td&gt;&lt;font size=&quot;3&quot;&gt;id bigint(20) NOTNULL&lt;/font&gt;&lt;/td&gt;&lt;/tr&gt;&lt;tr&gt;&lt;td&gt;&lt;font size=&quot;3&quot;&gt;U&lt;/font&gt;&lt;/td&gt;&lt;td&gt;&lt;font size=&quot;3&quot;&gt;name varchar(255) NOTNULL&lt;/font&gt;&lt;/td&gt;&lt;/tr&gt;&lt;tr&gt;&lt;td&gt;&lt;/td&gt;&lt;td&gt;&lt;font size=&quot;3&quot;&gt;&lt;br&gt;&lt;/font&gt;&lt;/td&gt;&lt;/tr&gt;&lt;/tbody&gt;&lt;/table&gt;" style="verticalAlign=top;align=left;overflow=fill;html=1;whiteSpace=wrap;" vertex="1" parent="1">
          <mxGeometry x="70" y="260" width="300" height="170" as="geometry" />
        </mxCell>
        <mxCell id="KOH9cIi894yx0-R4t6Mn-5" value="&lt;font style=&quot;font-size: 24px;&quot;&gt;PersonController&lt;/font&gt;" style="swimlane;fontStyle=0;childLayout=stackLayout;horizontal=1;startSize=26;fillColor=none;horizontalStack=0;resizeParent=1;resizeParentMax=0;resizeLast=0;collapsible=1;marginBottom=0;whiteSpace=wrap;html=1;" vertex="1" parent="1">
          <mxGeometry x="380" y="550" width="444.23" height="156" as="geometry" />
        </mxCell>
        <mxCell id="KOH9cIi894yx0-R4t6Mn-6" value="&lt;font style=&quot;font-size: 18px;&quot;&gt;+ Index ()&lt;/font&gt;" style="text;strokeColor=none;fillColor=none;align=left;verticalAlign=top;spacingLeft=4;spacingRight=4;overflow=hidden;rotatable=0;points=[[0,0.5],[1,0.5]];portConstraint=eastwest;whiteSpace=wrap;html=1;" vertex="1" parent="KOH9cIi894yx0-R4t6Mn-5">
          <mxGeometry y="26" width="444.23" height="26" as="geometry" />
        </mxCell>
        <mxCell id="KOH9cIi894yx0-R4t6Mn-14" value="&lt;font style=&quot;font-size: 18px;&quot;&gt;+ Create ()&lt;/font&gt;" style="text;strokeColor=none;fillColor=none;align=left;verticalAlign=top;spacingLeft=4;spacingRight=4;overflow=hidden;rotatable=0;points=[[0,0.5],[1,0.5]];portConstraint=eastwest;whiteSpace=wrap;html=1;" vertex="1" parent="KOH9cIi894yx0-R4t6Mn-5">
          <mxGeometry y="52" width="444.23" height="26" as="geometry" />
        </mxCell>
        <mxCell id="KOH9cIi894yx0-R4t6Mn-9" value="&lt;font style=&quot;font-size: 18px;&quot;&gt;+ FInd ()&lt;/font&gt;" style="text;strokeColor=none;fillColor=none;align=left;verticalAlign=top;spacingLeft=4;spacingRight=4;overflow=hidden;rotatable=0;points=[[0,0.5],[1,0.5]];portConstraint=eastwest;whiteSpace=wrap;html=1;" vertex="1" parent="KOH9cIi894yx0-R4t6Mn-5">
          <mxGeometry y="78" width="444.23" height="26" as="geometry" />
        </mxCell>
        <mxCell id="KOH9cIi894yx0-R4t6Mn-10" value="&lt;font style=&quot;font-size: 18px;&quot;&gt;+ Update ()&lt;/font&gt;" style="text;strokeColor=none;fillColor=none;align=left;verticalAlign=top;spacingLeft=4;spacingRight=4;overflow=hidden;rotatable=0;points=[[0,0.5],[1,0.5]];portConstraint=eastwest;whiteSpace=wrap;html=1;" vertex="1" parent="KOH9cIi894yx0-R4t6Mn-5">
          <mxGeometry y="104" width="444.23" height="26" as="geometry" />
        </mxCell>
        <mxCell id="KOH9cIi894yx0-R4t6Mn-11" value="&lt;font style=&quot;font-size: 18px;&quot;&gt;+ destroy ()&lt;/font&gt;" style="text;strokeColor=none;fillColor=none;align=left;verticalAlign=top;spacingLeft=4;spacingRight=4;overflow=hidden;rotatable=0;points=[[0,0.5],[1,0.5]];portConstraint=eastwest;whiteSpace=wrap;html=1;" vertex="1" parent="KOH9cIi894yx0-R4t6Mn-5">
          <mxGeometry y="130" width="444.23" height="26" as="geometry" />
        </mxCell>
        <mxCell id="KOH9cIi894yx0-R4t6Mn-13" value="" style="curved=1;endArrow=classic;html=1;rounded=0;entryX=1;entryY=0.75;entryDx=0;entryDy=0;exitX=-0.023;exitY=-0.308;exitDx=0;exitDy=0;exitPerimeter=0;" edge="1" parent="1" source="KOH9cIi894yx0-R4t6Mn-10" target="KOH9cIi894yx0-R4t6Mn-4">
          <mxGeometry width="50" height="50" relative="1" as="geometry">
            <mxPoint x="110" y="490" as="sourcePoint" />
            <mxPoint x="460" y="466" as="targetPoint" />
            <Array as="points">
              <mxPoint x="270" y="560" />
              <mxPoint x="350" y="510" />
              <mxPoint x="500" y="466" />
              <mxPoint x="490" y="370" />
            </Array>
          </mxGeometry>
        </mxCell>
      </root>
    </mxGraphModel>
  </diagram>
</mxfile>
